<svg version="1.1" id="Layer_1" xmlns="http://www.w3.org/2000/svg" xmlns:xlink="http://www.w3.org/1999/xlink" x="0px" y="0px"
	 width="100%" viewBox="0 0 1024 1024" enable-background="new 0 0 1024 1024" xml:space="preserve">
<rect x="0" y="0" width="100%" height="100%" fill="white"/>
<path fill="#000000" opacity="1.000000" stroke="none" 
	d="
M1025.000000,542.531372 
	C1024.118042,552.078979 1023.279968,561.162476 1022.346191,570.236145 
	C1018.844971,604.258606 1011.635071,637.514404 1001.201782,670.054260 
	C974.075317,754.657532 927.454407,827.039246 862.841675,887.699097 
	C814.490540,933.092224 759.194275,967.744812 697.104309,991.494019 
	C664.349426,1004.022644 630.749084,1013.270081 596.205505,1018.965454 
	C580.813538,1021.503235 565.214661,1022.785950 549.354858,1024.819092 
	C524.979126,1025.000000 500.958221,1025.000000 476.468658,1025.000000 
	C466.754578,1022.721375 457.218628,1022.734619 447.834778,1021.555176 
	C413.206665,1017.203125 379.435181,1009.326660 346.468536,997.970154 
	C266.974548,970.585449 198.219788,926.238037 140.673264,865.128784 
	C75.646149,796.075867 32.349442,715.147217 12.056899,622.242554 
	C6.655664,597.514221 3.038307,572.515869 1.664180,547.217346 
	C1.619740,546.399231 1.368131,545.592407 1.106549,544.390137 
	C1.000000,524.645752 1.000000,505.291534 1.000000,485.468658 
	C1.857749,475.909210 2.688489,466.815735 3.578186,457.728088 
	C6.551245,427.360260 12.597032,397.610138 21.205231,368.339050 
	C37.472759,313.023438 62.248108,261.858704 95.816589,214.995163 
	C125.019836,174.225754 159.423096,138.381073 199.100159,107.706604 
	C262.911499,58.373833 334.509583,25.934048 413.516418,9.910522 
	C435.203766,5.512063 457.168304,2.878872 479.623657,1.145044 
	C502.020905,1.000000 524.041809,1.000000 546.531372,1.000000 
	C557.395447,2.189416 567.795227,3.342826 578.185669,4.574639 
	C617.880493,9.280566 656.266968,19.271236 693.663818,33.239491 
	C756.594360,56.744942 812.564392,91.635445 861.714600,137.265274 
	C914.299133,186.083405 954.999329,243.453293 983.530579,309.417450 
	C1000.398560,348.416321 1012.129089,388.871552 1019.096985,430.733551 
	C1021.880920,447.459045 1023.464722,464.337067 1024.859741,481.621277 
	C1025.000000,502.020905 1025.000000,522.041809 1025.000000,542.531372 
M11.765685,454.104309 
	C10.070043,469.658722 8.754797,485.248138 8.354360,500.889313 
	C7.645754,528.567505 9.513715,556.095520 13.212673,583.536865 
	C17.987999,618.963379 26.460934,653.480042 38.905506,686.940857 
	C62.607399,750.670349 97.768204,807.409668 144.206757,857.111938 
	C181.493210,897.019104 224.086807,930.232788 272.060303,956.222229 
	C338.435486,992.180664 409.209259,1013.184082 484.898132,1017.003418 
	C519.452637,1018.747070 553.860718,1017.675293 588.003601,1012.399170 
	C633.631775,1005.348328 677.555664,992.300964 719.688049,973.192627 
	C798.416443,937.487061 863.855957,885.151062 916.030762,816.364258 
	C954.076172,766.205505 981.797180,710.772156 998.894104,650.079285 
	C1009.630981,611.963623 1015.799561,573.108704 1017.516602,533.611206 
	C1018.587219,508.981445 1017.498291,484.367859 1014.907654,459.790192 
	C1010.859497,421.383331 1002.718384,383.935242 989.850281,347.560760 
	C951.036499,237.844955 882.779053,151.163193 785.062195,88.023102 
	C709.428284,39.151958 626.285339,12.870719 536.374756,8.495754 
	C503.223114,6.882627 470.089874,8.376881 437.245575,13.507114 
	C388.425110,21.132793 341.578339,35.388382 297.024780,56.819908 
	C220.666733,93.550308 156.917252,145.640930 106.667946,214.013718 
	C54.166271,285.451233 22.504808,365.161560 11.765685,454.104309 
z"/>
<path fill="#000000" opacity="1.000000" stroke="none" 
	d="
M614.796326,34.928162 
	C681.873108,49.696110 742.739014,77.333778 797.781006,117.568268 
	C839.640015,148.166321 875.817871,184.538696 906.295471,226.589233 
	C945.245117,280.328796 971.876038,339.608429 986.691467,404.204620 
	C992.192871,428.190948 995.752136,452.491089 997.464172,477.100769 
	C1004.201294,573.945374 983.712158,664.607666 936.354797,749.261902 
	C910.919495,794.729187 878.906128,835.120178 840.403931,870.086914 
	C774.143494,930.262939 697.236694,970.247864 609.537292,988.957092 
	C574.407532,996.451477 538.830994,999.937073 502.909760,999.019043 
	C424.290070,997.009766 350.346832,977.337158 281.326691,939.538147 
	C200.174393,895.095032 136.159241,832.897217 89.639854,752.955933 
	C60.567875,702.997070 41.146557,649.433533 31.455997,592.325134 
	C25.917519,559.685730 23.492907,526.876526 24.886581,493.868591 
	C26.783188,448.949310 34.578430,405.020355 48.530621,362.192627 
	C69.736198,297.099884 103.185837,239.077011 148.702545,188.030426 
	C188.130524,143.812286 234.061859,107.781380 286.432251,80.040344 
	C335.430328,54.085648 387.393280,37.005203 442.238495,28.956907 
	C476.425079,23.940170 510.821350,22.299988 545.325623,24.878510 
	C568.560791,26.614889 591.595825,29.908787 614.796326,34.928162 
M604.466675,968.761047 
	C652.193115,959.000793 697.003418,941.511536 739.303467,917.525024 
	C811.905579,876.355713 869.634644,819.917969 912.439575,748.244324 
	C951.594849,682.681702 973.235901,611.675293 977.477905,535.527039 
	C979.352356,501.878815 977.253601,468.282501 971.472107,435.016724 
	C960.352661,371.037140 937.598816,311.558228 901.843567,257.246185 
	C864.382141,200.342438 816.870178,153.571243 759.354309,117.003105 
	C691.900330,74.116470 618.183655,50.227734 538.485962,45.557331 
	C494.582550,42.984524 450.947540,46.421654 408.065216,56.748810 
	C301.179260,82.489647 213.255264,138.538742 145.602219,224.923645 
	C75.897934,313.927795 42.762199,415.591095 46.151222,528.891113 
	C46.924397,554.739563 49.973389,580.298889 55.366993,605.544922 
	C74.151505,693.470398 115.166916,769.670105 177.377441,834.404968 
	C225.805084,884.797668 283.008453,922.156616 348.086945,947.549622 
	C387.882416,963.077393 429.123901,972.528625 471.583954,976.511719 
	C492.470520,978.471008 513.429138,979.022034 534.448425,977.821838 
	C557.745911,976.491699 580.801331,973.684448 604.466675,968.761047 
z"/>
<path fill="#000000" opacity="1.000000" stroke="none" 
	d="
M652.909180,361.028015 
	C651.495605,361.651703 650.467468,362.364685 649.352966,362.545990 
	C638.990845,364.231445 635.798157,371.423889 634.465332,380.734192 
	C631.284180,402.955658 627.711670,425.119568 623.505981,447.178711 
	C622.144226,454.321198 625.629150,460.884064 626.796204,467.718140 
	C630.406067,488.855011 630.968811,509.973633 628.727600,531.324341 
	C627.432861,543.658447 624.973633,555.670532 621.485474,567.456970 
	C619.015381,575.803406 620.297668,583.834534 621.335266,592.057007 
	C623.395264,608.382690 622.601013,624.476807 618.539124,640.566223 
	C615.501831,652.597412 617.471619,665.097717 617.267334,677.390503 
	C617.239624,679.061157 617.974548,680.229980 619.717712,680.679993 
	C623.312805,681.608093 624.178040,684.451233 624.198547,687.615479 
	C624.263428,697.612854 624.297363,707.612244 624.159119,717.608337 
	C624.096619,722.126953 622.422180,726.095764 618.693054,728.908264 
	C616.043335,730.906738 615.193726,733.503296 615.236633,736.745361 
	C615.337952,744.408691 615.127380,752.076111 615.221863,759.739624 
	C615.264099,763.164490 613.901428,764.457153 610.472046,764.418335 
	C598.808899,764.286133 587.142944,764.283875 575.479370,764.387268 
	C572.227966,764.416077 570.957397,763.083191 571.026428,759.944397 
	C571.183899,752.784607 571.040527,745.612000 571.419983,738.465820 
	C571.638367,734.352051 570.973877,730.984314 567.638855,728.231445 
	C564.249084,725.433350 562.688599,721.669617 562.715515,717.212952 
	C562.770935,708.048340 562.725159,698.883057 562.737610,689.718079 
	C562.742371,686.235718 563.396240,683.061951 566.888855,681.269348 
	C568.859253,680.257935 568.907227,678.374756 568.910339,676.512695 
	C568.934509,662.016296 569.129150,647.517151 568.905151,633.024475 
	C568.755493,623.342346 564.488342,614.253845 564.238770,604.533508 
	C564.196289,602.874939 563.674316,601.205139 563.788696,599.569519 
	C565.364502,577.030579 560.013245,555.325195 556.447510,533.337280 
	C553.741089,516.648254 548.264160,500.375732 548.617493,483.177582 
	C548.760254,476.225922 549.875427,469.554932 552.749268,463.298737 
	C556.752014,454.584930 559.244507,445.486328 560.200134,436.006744 
	C560.756531,430.486664 558.277954,425.298737 557.542664,419.880981 
	C555.597107,405.546417 552.693970,391.401398 548.761047,377.450073 
	C547.321228,372.342468 544.951538,369.019440 539.757935,367.259460 
	C530.895935,364.256317 522.635376,359.917664 514.920837,354.559601 
	C512.051941,352.567047 509.131561,350.541565 505.979736,349.081421 
	C490.214355,341.777771 476.222260,332.167542 464.901154,318.819458 
	C461.255219,314.520782 456.477051,313.059418 450.660095,313.188690 
	C434.837555,313.540405 418.999512,313.148010 403.172760,313.387451 
	C398.341644,313.460541 396.338654,312.304749 396.527435,307.022186 
	C396.919922,296.037994 396.908173,285.022034 396.548859,274.035950 
	C396.379150,268.846222 398.222290,267.607880 403.150574,267.622314 
	C455.807312,267.776398 508.464691,267.718353 561.121887,267.716095 
	C568.959106,267.715759 568.946777,267.709900 569.008972,259.717255 
	C569.199402,235.227173 569.514771,210.737122 569.498230,186.247238 
	C569.494995,181.471802 570.929443,179.776276 575.745972,179.896881 
	C586.570679,180.167969 597.406738,179.967285 608.237976,180.006027 
	C614.730713,180.029266 615.084595,180.387711 615.082031,186.732376 
	C615.072266,211.227783 615.035950,235.723190 615.021423,260.218597 
	C615.017090,267.592133 615.145142,267.712677 622.552063,267.712769 
	C679.041870,267.713379 735.531738,267.707764 792.021545,267.708984 
	C799.261230,267.709167 799.282349,267.722290 799.288818,274.837006 
	C799.298706,285.668365 799.112244,296.503296 799.345520,307.329437 
	C799.442688,311.836761 798.018799,313.443268 793.363708,313.398407 
	C772.536072,313.197632 751.705139,313.370270 730.876038,313.273132 
	C727.533447,313.257538 724.917542,314.050903 722.300659,316.309113 
	C710.169373,326.777740 697.430237,336.374237 682.850647,343.340240 
	C672.482056,348.294250 664.183289,356.813599 652.909180,361.028015 
M678.477661,319.958008 
	C680.509583,318.104858 683.493530,317.292633 684.655823,314.515259 
	C683.914368,313.414032 682.881104,313.397217 681.890442,313.396240 
	C660.742554,313.375763 639.594604,313.400421 618.446960,313.329773 
	C615.088013,313.318542 614.221863,314.919067 614.272827,317.976837 
	C614.403137,325.801117 614.298279,333.629120 614.336365,341.455383 
	C614.342529,342.716736 613.977844,344.196442 615.795715,345.079956 
	C619.768494,344.024963 623.295288,340.862183 627.710876,340.802704 
	C637.140198,340.675629 645.577637,337.860138 653.488708,332.766296 
	C656.803406,330.632019 660.721924,329.406219 664.422974,327.908478 
	C669.237976,325.959961 673.745422,323.495636 678.477661,319.958008 
M542.371460,339.916809 
	C546.990479,340.297241 551.256653,342.138641 556.230957,343.883484 
	C556.272095,333.173401 560.778503,324.154083 563.253967,314.735840 
	C557.316711,312.520691 497.407776,312.866516 494.089935,314.892853 
	C494.017273,316.446686 495.220917,317.194824 496.146576,318.115326 
	C507.825439,329.729553 524.266663,332.047272 538.068726,339.522278 
	C539.004456,340.029053 540.362854,339.755280 542.371460,339.916809 
z"/>
<path fill="#000000" opacity="1.000000" stroke="none" 
	d="
M539.176392,613.000000 
	C539.168884,656.320862 539.167114,699.141785 539.147888,741.962646 
	C539.144592,749.292114 539.110413,749.303223 531.594849,749.310608 
	C521.431152,749.320557 511.264374,749.166809 501.105164,749.380554 
	C496.940338,749.468140 495.601593,747.944519 495.649536,743.852295 
	C495.821228,729.191956 495.707855,714.528320 495.702515,699.865906 
	C495.701874,698.094238 495.702454,696.322571 495.702454,694.335693 
	C492.797241,694.923950 492.570496,696.945496 491.869873,698.496643 
	C485.152649,713.367859 478.267151,728.168945 471.906921,743.192139 
	C469.891876,747.951782 467.338623,749.676147 462.202118,749.441345 
	C452.890839,749.015747 443.536285,749.059631 434.219971,749.423767 
	C429.594543,749.604492 427.430908,747.812683 425.672058,743.729614 
	C407.096680,700.608215 388.358215,657.557129 369.652985,614.491699 
	C366.070740,606.244202 362.426270,598.023743 358.836517,589.779480 
	C358.061218,587.998901 357.398254,586.169495 356.697418,584.397644 
	C359.141541,582.957764 361.344055,583.158264 363.473236,583.147949 
	C374.636475,583.094177 385.804047,583.269348 396.961334,582.999878 
	C401.331787,582.894348 403.432892,584.621277 405.129242,588.533997 
	C418.441284,619.239258 431.955200,649.857056 445.442963,680.485901 
	C446.159637,682.113403 446.572754,684.012756 448.411407,685.034241 
	C450.864716,684.547180 451.000488,682.236755 451.771179,680.545959 
	C465.791138,649.786377 479.828674,619.034302 493.663910,588.191589 
	C495.353424,584.425110 497.488861,583.039917 501.565369,583.023254 
	C512.385803,582.979065 523.200439,584.255188 534.024475,583.152466 
	C537.922424,582.755371 539.300354,584.710327 539.222107,588.508911 
	C539.057312,596.502869 539.174683,604.502625 539.176392,613.000000 
z"/>
<path fill="#000000" opacity="1.000000" stroke="none" 
	d="
M300.995911,511.860535 
	C305.155853,511.803467 308.828827,511.887146 312.482422,511.659760 
	C318.885315,511.261230 322.371704,507.983307 323.819580,501.717102 
	C324.773102,497.590363 324.666473,493.440338 324.586243,489.288300 
	C324.300079,474.474823 325.452728,459.630463 323.914246,444.849701 
	C323.016205,436.222168 318.907288,432.615479 310.057556,432.467407 
	C300.564392,432.308563 291.064178,432.307343 281.571960,432.491272 
	C278.043732,432.559601 275.690979,431.518982 273.744415,428.444977 
	C266.706696,417.330994 259.421967,406.373566 252.266098,395.333984 
	C251.397079,393.993317 250.068771,392.766388 250.526566,390.878082 
	C251.682724,389.464478 253.271713,389.847107 254.713455,389.846222 
	C274.704529,389.833954 294.712799,389.333496 314.681885,390.000702 
	C335.166077,390.685120 352.412384,398.034821 362.070129,417.686218 
	C366.247711,426.186737 368.055084,435.337524 368.137390,444.742584 
	C368.291901,462.400055 368.183655,480.059906 368.167603,497.718750 
	C368.161194,504.745758 367.088745,511.628265 365.357330,518.429749 
	C359.620819,540.964233 339.722504,554.279175 317.873444,555.176270 
	C304.772400,555.714233 291.486023,556.794067 278.490387,554.392639 
	C250.571732,549.233643 234.759033,529.802002 234.722107,501.445282 
	C234.702148,486.118744 234.843948,470.790771 234.661285,455.466461 
	C234.611389,451.281006 236.173264,449.889404 240.195160,449.938049 
	C251.188461,450.070923 262.185883,450.043854 273.179199,449.896667 
	C277.118805,449.843903 278.360077,451.499664 278.319855,455.303986 
	C278.170197,469.462830 278.225250,483.624237 278.266937,497.784515 
	C278.297028,508.016510 281.919006,511.684021 292.004547,511.839233 
	C294.835907,511.882812 297.668304,511.855865 300.995911,511.860535 
z"/>
<path fill="#000000" opacity="1.000000" stroke="none" 
	d="
M426.484161,509.713287 
	C429.594666,511.789032 432.761383,511.801636 435.942780,511.797791 
	C451.932037,511.778320 467.922455,511.872711 483.909790,511.692902 
	C487.885620,511.648163 490.346527,513.027710 492.399231,516.427246 
	C499.197784,527.686646 506.271362,538.779785 513.216492,549.950928 
	C514.077576,551.335876 515.311157,552.572021 515.319702,554.349792 
	C514.446655,555.962585 512.959900,555.394104 511.728180,555.394470 
	C484.746307,555.402466 457.763855,555.481995 430.782776,555.327454 
	C403.357300,555.170349 383.430420,538.699646 378.201172,511.968506 
	C377.407715,507.912476 377.052460,503.708191 377.042847,499.571198 
	C376.963654,465.427917 376.995697,431.284332 377.039551,397.140900 
	C377.048767,389.981720 377.212463,389.905243 384.332581,389.886322 
	C394.492340,389.859344 404.652161,389.839447 414.811890,389.802704 
	C421.196838,389.779602 421.319000,389.846771 421.321655,396.106201 
	C421.336029,429.916870 421.358215,463.727631 421.294312,497.538177 
	C421.285339,502.282745 422.240479,506.451508 426.484161,509.713287 
z"/>
<path fill="#000000" opacity="1.000000" stroke="none" 
	d="
M665.005981,628.000000 
	C664.994812,615.003296 664.955750,602.506531 664.984985,590.009888 
	C665.000610,583.333130 665.276611,583.106506 672.129395,583.101685 
	C681.960144,583.094727 691.790955,583.098267 701.621704,583.113464 
	C709.248047,583.125305 709.266357,583.136292 709.263611,590.998596 
	C709.251343,626.322693 709.226562,661.646851 709.209167,696.970947 
	C709.205261,705.026978 709.210693,705.007019 717.492249,705.024780 
	C725.322876,705.041504 733.153564,705.149902 740.983948,705.129944 
	C744.446472,705.121155 746.753174,706.450623 748.660706,709.517578 
	C755.698730,720.833435 763.051575,731.953064 770.204407,743.198425 
	C771.222961,744.799744 772.870544,746.266418 772.390625,748.548462 
	C770.710876,749.755310 768.823730,749.284363 767.053345,749.286011 
	C735.228271,749.316162 703.403259,749.312256 671.578186,749.301392 
	C665.087402,749.299133 665.026062,749.205383 665.025146,742.470520 
	C665.019836,704.480347 665.012939,666.490173 665.005981,628.000000 
z"/>
<path fill="#000000" opacity="1.000000" stroke="none" 
	d="
M777.000244,555.386963 
	C771.502625,555.381104 766.499146,555.226746 761.508972,555.417908 
	C757.787170,555.560608 756.602234,554.015747 756.629700,550.405212 
	C756.752441,534.246704 756.510193,518.083923 756.774109,501.928833 
	C756.853821,497.048340 755.666138,494.545715 750.426575,495.401276 
	C745.676392,496.176910 742.881165,493.990692 740.375854,489.994965 
	C732.946106,478.145264 725.091736,466.561951 717.422302,454.862061 
	C716.705383,453.768372 715.747681,452.758362 715.770691,451.218567 
	C716.963806,449.224213 718.994446,449.990845 720.684204,449.976624 
	C729.512939,449.902283 738.342834,449.972137 747.172119,449.937836 
	C757.695496,449.897003 756.648438,450.919861 756.668091,440.671783 
	C756.696533,425.845062 756.876831,411.013977 756.563904,396.193817 
	C756.454468,391.011078 758.255066,389.626953 763.191895,389.771454 
	C773.844299,390.083160 784.514709,389.962982 795.173584,389.778290 
	C799.068848,389.710785 800.398621,391.108673 800.391479,395.010590 
	C800.296509,446.820770 800.297119,498.631256 800.368896,550.441528 
	C800.373901,554.055908 799.223755,555.553406 795.490295,555.426941 
	C789.500000,555.223938 783.497498,555.381592 777.000244,555.386963 
z"/>
<path fill="#000000" opacity="1.000000" stroke="none" 
	d="
M698.965820,555.400330 
	C689.647522,555.389771 680.822937,555.385010 671.998352,555.366516 
	C664.981812,555.351746 664.967957,555.344299 664.967834,548.520447 
	C664.967102,506.062469 664.974060,463.604492 664.975952,421.146515 
	C664.976379,412.654938 665.064514,404.161713 664.919250,395.672546 
	C664.848938,391.564514 666.119080,389.645081 670.656860,389.745483 
	C681.806702,389.992218 692.968140,389.921234 704.120605,389.728241 
	C708.069275,389.659912 709.340149,391.169800 709.333252,395.004181 
	C709.240479,446.786133 709.219666,498.568298 709.290649,550.350281 
	C709.296143,554.339722 707.748840,555.787903 703.953064,555.416992 
	C702.468811,555.271973 700.958191,555.397705 698.965820,555.400330 
z"/>
<path fill="#000000" opacity="1.000000" stroke="none" 
	d="
M176.999451,555.376953 
	C171.837952,555.366699 167.175064,555.296814 162.514313,555.367798 
	C159.754715,555.409790 158.667175,554.176392 158.671341,551.460205 
	C158.709808,526.318298 158.697006,501.176331 158.690445,476.034363 
	C158.689819,473.605835 159.758133,471.517792 160.771729,469.429932 
	C172.836639,444.577301 184.990601,419.767426 196.932297,394.855835 
	C198.704788,391.158264 200.972946,389.726105 205.024048,389.816040 
	C214.964020,390.036652 224.912186,389.888123 234.520569,389.888123 
	C235.733749,392.091614 234.694550,393.353363 234.065491,394.670624 
	C221.731354,420.498413 209.423050,446.338654 197.011871,472.129395 
	C195.165710,475.965759 194.251282,479.800842 194.278961,484.096008 
	C194.419540,505.907135 194.237549,527.720703 194.445618,549.530762 
	C194.489410,554.120239 193.076340,555.849426 188.482651,555.442688 
	C184.847961,555.120789 181.162094,555.377136 176.999451,555.376953 
z"/>
<path fill="#000000" opacity="1.000000" stroke="none" 
	d="
M512.199951,430.000000 
	C512.209229,450.164276 512.102966,469.829742 512.312256,489.491882 
	C512.361145,494.081757 510.880676,495.592438 506.294830,495.479309 
	C495.302887,495.208160 484.296997,495.254944 473.302399,495.467285 
	C469.103210,495.548370 467.836426,493.937164 467.851105,489.902191 
	C467.965332,458.406464 467.961639,426.910095 467.885712,395.414185 
	C467.876007,391.386902 469.314178,389.745880 473.456238,389.804047 
	C484.618988,389.960876 495.787537,389.923950 506.950287,389.745056 
	C510.833527,389.682831 512.286316,391.110474 512.235779,395.004791 
	C512.086487,406.501404 512.192993,418.001343 512.199951,430.000000 
z"/>
<path fill="#000000" opacity="1.000000" stroke="none" 
	d="
M400.301910,702.155518 
	C400.301147,716.295715 400.159088,729.959106 400.384308,743.616516 
	C400.455841,747.952881 399.126953,749.494263 394.698242,749.388245 
	C383.875519,749.129028 373.039825,749.164673 362.214844,749.371521 
	C358.018616,749.451660 356.722656,747.848694 356.772827,743.797119 
	C356.946106,729.804932 356.967560,715.807800 356.781158,701.816101 
	C356.723419,697.484314 358.291931,695.853760 362.581146,695.918579 
	C373.241058,696.079773 383.906921,696.097778 394.566254,695.921753 
	C398.798004,695.851868 400.921600,697.229309 400.301910,702.155518 
z"/>
<path fill="#000000" opacity="1.000000" stroke="none" 
	d="
M164.861084,411.242523 
	C166.213989,413.958893 167.053116,416.601227 168.628815,418.687195 
	C173.991043,425.785980 172.914215,432.368347 168.653839,439.704803 
	C163.837601,447.998505 160.088226,456.911743 154.394928,465.934631 
	C142.140594,441.113007 129.886261,416.291382 117.850601,391.912659 
	C118.623558,390.334656 119.418564,390.006439 120.251259,390.001984 
	C130.566483,389.946777 140.882034,389.949921 151.197189,389.888458 
	C153.769287,389.873138 155.073441,391.380493 156.085983,393.455292 
	C158.930939,399.285095 161.815765,405.095490 164.861084,411.242523 
z"/>
</svg>
