<svg version="1.1" id="Layer_1" xmlns="http://www.w3.org/2000/svg" xmlns:xlink="http://www.w3.org/1999/xlink" x="0px" y="0px"
	 width="100%" viewBox="0 0 252 226" enable-background="new 0 0 252 226" xml:space="preserve">
<path fill="none" opacity="1.000000" stroke="none" 
	d="
M145.000000,227.000000 
	C96.666672,227.000000 48.833340,227.000000 1.000006,227.000000 
	C1.000004,151.666672 1.000004,76.333351 1.000002,1.000016 
	C84.999992,1.000011 168.999985,1.000011 252.999969,1.000005 
	C252.999985,76.333321 252.999985,151.666641 253.000000,226.999969 
	C217.166672,227.000000 181.333328,227.000000 145.000000,227.000000 
M88.499893,224.751846 
	C115.990829,224.751846 143.481766,224.752869 170.972702,224.751465 
	C187.967056,224.750595 204.963181,224.899200 221.955338,224.704971 
	C244.024963,224.452667 257.933929,203.970367 247.902771,186.083939 
	C216.400894,129.913422 184.730896,73.836128 152.861038,17.873632 
	C141.560135,-1.970406 112.548965,-1.800242 101.255310,18.076361 
	C69.520157,73.929588 37.980743,129.894196 6.447416,185.861816 
	C0.111607,197.107071 2.905740,210.074280 13.027810,218.106583 
	C19.023947,222.864777 25.955061,224.766388 33.517799,224.758545 
	C51.511810,224.739899 69.505852,224.752106 88.499893,224.751846 
z"/>
<path fill="#BAC3CD" opacity="1.000000" stroke="none" 
	d="
M87.999886,224.751846 
	C69.505852,224.752106 51.511810,224.739899 33.517799,224.758545 
	C25.955061,224.766388 19.023947,222.864777 13.027810,218.106583 
	C2.905740,210.074280 0.111607,197.107071 6.447416,185.861816 
	C37.980743,129.894196 69.520157,73.929588 101.255310,18.076361 
	C112.548965,-1.800242 141.560135,-1.970406 152.861038,17.873632 
	C184.730896,73.836128 216.400894,129.913422 247.902771,186.083939 
	C257.933929,203.970367 244.024963,224.452667 221.955338,224.704971 
	C204.963181,224.899200 187.967056,224.750595 170.972702,224.751465 
	C143.481766,224.752869 115.990829,224.751846 87.999886,224.751846 
M170.859894,81.693207 
	C160.534958,63.438271 150.257309,45.156361 139.867126,26.938641 
	C133.748108,16.209803 120.378632,16.345150 114.242386,27.132740 
	C107.575470,38.853275 100.956551,50.601128 94.324623,62.341541 
	C70.009880,105.385643 45.694233,148.429230 21.389299,191.478867 
	C16.586821,199.985184 20.383856,207.440689 30.149178,208.673431 
	C31.628912,208.860245 33.142479,208.816284 34.640404,208.816422 
	C96.298164,208.822052 157.955917,208.822937 219.613678,208.807938 
	C221.440048,208.807495 223.301300,208.824188 225.086868,208.502777 
	C234.030243,206.892944 237.509201,199.748123 233.081680,191.900009 
	C212.473022,155.369522 191.808060,118.870827 170.859894,81.693207 
z"/>
<path fill="none" opacity="1.000000" stroke="none" 
	d="
M171.011566,82.026978 
	C191.808060,118.870827 212.473022,155.369522 233.081680,191.900009 
	C237.509201,199.748123 234.030243,206.892944 225.086868,208.502777 
	C223.301300,208.824188 221.440048,208.807495 219.613678,208.807938 
	C157.955917,208.822937 96.298164,208.822052 34.640404,208.816422 
	C33.142479,208.816284 31.628912,208.860245 30.149178,208.673431 
	C20.383856,207.440689 16.586821,199.985184 21.389299,191.478867 
	C45.694233,148.429230 70.009880,105.385643 94.324623,62.341541 
	C100.956551,50.601128 107.575470,38.853275 114.242386,27.132740 
	C120.378632,16.345150 133.748108,16.209803 139.867126,26.938641 
	C150.257309,45.156361 160.534958,63.438271 171.011566,82.026978 
M123.792381,150.022568 
	C126.554428,150.022568 129.316467,150.022568 132.190323,150.022568 
	C135.115417,130.994537 137.971710,112.602699 140.754608,94.199753 
	C141.625351,88.441643 142.521835,82.672798 143.019089,76.875633 
	C144.423416,60.503559 138.976364,55.309261 122.544426,57.052452 
	C122.047829,57.105133 121.548248,57.144089 121.056786,57.228569 
	C114.907104,58.285648 111.338310,62.111603 110.947289,68.393181 
	C110.793205,70.868576 110.932274,73.400131 111.264633,75.862000 
	C114.446823,99.433319 117.677330,122.998245 120.993332,146.551010 
	C121.164436,147.766418 122.238548,148.854691 123.792381,150.022568 
M114.576736,165.113831 
	C110.410782,170.939621 109.789268,177.302673 113.175415,183.433960 
	C116.693016,189.803223 123.212448,189.797363 129.492279,189.295380 
	C137.085297,188.688431 140.850601,184.837616 141.594162,177.287994 
	C142.377045,169.339050 139.131363,163.340988 132.466888,161.539642 
	C126.340637,159.883774 120.255165,159.991440 114.576736,165.113831 
z"/>
<path fill="#BAC3CD" opacity="1.000000" stroke="none" 
	d="
M123.342308,150.012360 
	C122.238548,148.854691 121.164436,147.766418 120.993332,146.551010 
	C117.677330,122.998245 114.446823,99.433319 111.264633,75.862000 
	C110.932274,73.400131 110.793205,70.868576 110.947289,68.393181 
	C111.338310,62.111603 114.907104,58.285648 121.056786,57.228569 
	C121.548248,57.144089 122.047829,57.105133 122.544426,57.052452 
	C138.976364,55.309261 144.423416,60.503559 143.019089,76.875633 
	C142.521835,82.672798 141.625351,88.441643 140.754608,94.199753 
	C137.971710,112.602699 135.115417,130.994537 132.190323,150.022568 
	C129.316467,150.022568 126.554428,150.022568 123.342308,150.012360 
z"/>
<path fill="#BAC3CD" opacity="1.000000" stroke="none" 
	d="
M114.824944,164.827759 
	C120.255165,159.991440 126.340637,159.883774 132.466888,161.539642 
	C139.131363,163.340988 142.377045,169.339050 141.594162,177.287994 
	C140.850601,184.837616 137.085297,188.688431 129.492279,189.295380 
	C123.212448,189.797363 116.693016,189.803223 113.175415,183.433960 
	C109.789268,177.302673 110.410782,170.939621 114.824944,164.827759 
z"/>
</svg>