<svg xmlns="http://www.w3.org/2000/svg" viewBox="0 0 252 226">
  <path fill="#BAC3CD" d="M170.86 81.69c-10.32-18.25-20.6-36.54-30.99-54.75-6.12-10.73-19.49-10.59-25.62.19L21.39 191.48c-4.8 8.51-1.01 15.96 8.76 17.19 1.48.19 2.99.15 4.49.15h184.97c1.83 0 3.69.02 5.48-.31 8.94-1.61 12.42-8.75 7.99-16.6L170.86 81.69z"/>
  <path fill="#BAC3CD" d="M123.34 150.01c-1.1-1.16-2.18-2.25-2.35-3.46-3.32-23.55-6.55-47.12-9.73-70.69-.33-2.46-.47-4.99-.32-7.47.39-6.28 3.96-10.11 10.11-11.17.49-.09.99-.12 1.49-.18 16.43-1.74 21.88 3.45 20.47 19.82-.5 5.8-1.39 11.57-2.26 17.32-2.78 18.4-5.64 36.79-8.56 55.82h-8.85zM114.82 164.83c5.43-4.84 11.52-4.95 17.64-3.29 6.66 1.8 9.91 7.8 9.13 15.75-.74 7.55-4.51 11.4-12.1 12.01-6.28.5-12.8.5-16.32-5.86-3.39-6.13-2.77-12.49 1.65-18.61z"/>
</svg>
