<svg version="1.1" id="Layer_1" xmlns="http://www.w3.org/2000/svg" xmlns:xlink="http://www.w3.org/1999/xlink" x="0px" y="0px"
	 width="100%" viewBox="0 0 692 483" enable-background="new 0 0 692 483" xml:space="preserve">
<path fill="#FEFEFD" opacity="1.000000" stroke="none" 
	d="
M449.000000,484.000000 
	C299.333344,484.000000 150.166672,484.000000 1.000000,484.000000 
	C1.000000,323.000000 1.000000,162.000000 1.000000,1.000000 
	C231.666672,1.000000 462.333344,1.000000 693.000000,1.000000 
	C693.000000,162.000000 693.000000,323.000000 693.000000,484.000000 
	C611.833313,484.000000 530.666687,484.000000 449.000000,484.000000 
M566.942627,40.442501 
	C577.513550,29.336079 588.084534,18.229658 599.526001,6.208596 
	C596.817444,6.208596 595.535950,6.206412 594.254456,6.208920 
	C571.254761,6.253931 548.251404,6.538935 525.257812,6.184738 
	C519.140747,6.090509 515.035034,8.144185 511.019836,12.398884 
	C489.753967,34.933277 468.374878,57.362793 446.819733,79.620171 
	C443.423920,83.126633 442.026154,86.573410 442.039612,91.426788 
	C442.179688,141.925583 442.144562,192.425110 441.998230,242.923950 
	C441.988708,246.210083 443.418701,247.645508 445.913971,249.031982 
	C463.186615,258.629364 480.413849,268.308441 497.663513,277.947296 
	C501.959351,280.347717 506.283783,282.696991 511.267487,285.439850 
	C511.267487,212.596191 511.267487,140.532730 511.267487,68.100418 
	C520.345093,68.100418 528.974426,68.215637 537.595642,68.003235 
	C539.320435,67.960739 541.454041,67.101608 542.651672,65.883865 
	C550.707336,57.692890 558.561401,49.303551 566.942627,40.442501 
M307.974670,351.538391 
	C302.909851,339.980377 297.948730,328.374329 292.649567,316.924774 
	C291.983704,315.485962 289.564392,314.066772 287.910522,314.010193 
	C279.421722,313.719696 270.917572,313.878265 262.418762,313.879303 
	C257.044739,313.879944 251.670700,313.879425 245.874222,313.879425 
	C253.508347,331.636017 260.775055,348.721069 268.192291,365.740509 
	C276.206635,384.130096 284.429108,402.429016 292.436066,420.821777 
	C300.250397,438.772064 307.991669,456.755554 315.553253,474.813110 
	C316.869843,477.957214 318.541046,479.034119 321.870331,478.974274 
	C332.365570,478.785522 342.869781,478.752106 353.362854,478.993256 
	C356.593750,479.067505 358.028107,477.941223 359.274353,475.097107 
	C364.865845,462.336548 370.721130,449.691833 376.435364,436.984711 
	C379.097656,431.064423 381.655609,425.097168 384.260803,419.151215 
	C384.646240,419.245209 385.031677,419.339233 385.417114,419.433228 
	C385.417114,439.119690 385.417114,458.806152 385.417114,478.504395 
	C399.678040,478.504395 413.399536,478.504395 427.061951,478.504395 
	C427.061951,440.080048 427.061951,402.022766 427.061951,363.498291 
	C411.928528,363.498291 397.228577,363.498291 381.999451,363.498291 
	C391.670349,346.784454 401.003143,330.654938 410.707977,313.882507 
	C402.446960,313.882507 395.140686,313.764374 387.845520,313.995789 
	C386.590881,314.035583 384.776276,315.284180 384.243622,316.444244 
	C372.955139,341.028687 361.808838,365.678436 350.645355,390.320251 
	C346.339783,399.824188 342.060211,409.339935 337.556244,419.321381 
	C327.626801,396.621124 317.925232,374.441925 307.974670,351.538391 
M215.054138,283.713806 
	C242.243851,277.193329 254.742203,259.629761 255.995789,234.141479 
	C257.017365,213.370941 256.848480,192.501251 256.237457,171.704041 
	C255.762054,155.522125 250.281326,140.986679 236.613525,130.943069 
	C226.497726,123.509590 214.830200,120.524445 202.364746,120.527794 
	C184.375092,120.532623 166.385422,120.580948 148.395767,120.609039 
	C145.453125,120.613640 142.510483,120.609680 138.617661,120.609680 
	C147.656006,134.361099 156.056946,147.310303 164.731094,160.073853 
	C165.573563,161.313492 168.096176,161.916351 169.853409,161.945770 
	C179.844925,162.112991 189.841171,161.966217 199.835236,162.024551 
	C207.983887,162.072113 213.633896,167.078339 213.740768,175.124146 
	C213.981903,193.275848 213.994370,211.435516 213.733109,229.586655 
	C213.621628,237.330872 209.433304,241.580795 201.650238,242.149139 
	C194.360016,242.681488 187.006042,242.745789 179.696671,242.507812 
	C170.583588,242.211121 166.282227,237.342194 166.327896,228.050644 
	C166.377823,217.890533 166.514008,207.730896 166.580246,197.570831 
	C166.616730,191.972565 166.586777,186.373856 166.586777,180.910156 
	C151.944229,180.910156 138.111633,180.910156 124.054359,180.910156 
	C124.054359,198.980545 123.733917,216.464539 124.131493,233.932190 
	C124.690063,258.473358 138.910446,277.240570 162.597092,282.851471 
	C179.604187,286.880127 196.963547,285.793243 215.054138,283.713806 
M356.499817,242.643616 
	C346.003510,242.633560 335.506927,242.669342 325.011017,242.600861 
	C314.040375,242.529282 309.832977,238.321930 309.832397,227.519958 
	C309.830566,193.864243 309.845062,160.208527 309.853180,126.552818 
	C309.853638,124.612015 309.853210,122.671211 309.853210,120.770309 
	C295.118927,120.770309 281.092346,120.770309 267.185699,120.770309 
	C266.981445,121.574280 266.831116,121.890327 266.830750,122.206535 
	C266.789154,158.688339 266.701782,195.170288 266.798981,231.651764 
	C266.811249,236.259445 267.265930,241.002121 268.419861,245.447556 
	C274.103577,267.343933 288.400787,280.635284 310.621674,283.790039 
	C323.382935,285.601807 336.515320,284.976318 349.484070,285.107117 
	C367.571228,285.289520 385.661591,285.153107 404.237976,285.153107 
	C403.734680,283.945709 403.528625,283.169495 403.122284,282.518219 
	C395.383606,270.115540 387.707977,257.671326 379.749512,245.410858 
	C378.801147,243.949875 376.323639,242.827316 374.486176,242.719528 
	C368.841980,242.388458 363.164307,242.626923 356.499817,242.643616 
M559.687622,478.824646 
	C593.530640,478.824646 627.373657,478.824646 661.929138,478.824646 
	C660.595215,476.361115 659.778687,474.574402 658.720703,472.944458 
	C651.487244,461.800507 644.100891,450.754089 637.005127,439.523712 
	C635.165710,436.612579 633.126831,435.637878 629.742615,435.709717 
	C619.141418,435.934814 608.532410,435.792450 597.512939,435.792450 
	C597.512939,395.029022 597.512939,354.651947 597.512939,314.265472 
	C583.047424,314.265472 569.004150,314.265472 554.731445,314.265472 
	C554.731445,368.089722 554.760376,421.533905 554.660400,474.977844 
	C554.654297,478.223511 555.849976,479.151306 559.687622,478.824646 
M688.976013,259.500000 
	C688.976013,213.249039 688.976013,166.998093 688.976013,120.676468 
	C674.461853,120.676468 660.511169,120.676468 645.990356,120.676468 
	C645.990356,140.749466 645.990356,160.618393 645.990356,180.694977 
	C632.000427,180.694977 618.579590,180.694977 604.322693,180.694977 
	C611.974670,192.422653 619.817139,203.310547 626.391113,214.916916 
	C630.752930,222.617722 635.861206,226.723038 644.814636,224.945145 
	C645.056702,224.897079 645.367920,225.197388 646.099365,225.558807 
	C646.099365,245.073990 646.099365,264.815857 646.099365,284.755035 
	C660.597412,284.755035 674.640625,284.755035 688.979431,284.755035 
	C688.979431,276.431793 688.979431,268.465881 688.976013,259.500000 
M597.569519,225.500687 
	C597.569519,190.587189 597.569519,155.673706 597.569519,120.684715 
	C582.957031,120.684715 569.048157,120.684715 554.961609,120.684715 
	C554.961609,175.596542 554.961609,230.151840 554.961609,284.974121 
	C569.132141,284.974121 583.057800,284.974121 597.577698,284.974121 
	C597.577698,265.383820 597.577698,245.942261 597.569519,225.500687 
M483.947113,331.441376 
	C475.311340,340.692749 466.622192,349.895538 458.100433,359.250763 
	C456.898499,360.570251 455.858246,362.629669 455.847565,364.353424 
	C455.665924,393.684357 455.691406,423.016510 455.564392,452.347931 
	C455.551208,455.395752 456.673553,457.235718 459.297058,458.681061 
	C470.928986,465.089172 482.484406,471.636078 494.090302,478.091919 
	C494.866516,478.523682 495.830994,478.616974 496.961090,478.940094 
	C496.961090,436.270844 496.961090,393.988373 496.961090,351.163300 
	C504.835480,351.163300 512.466614,351.304871 520.084595,351.051758 
	C521.740112,350.996765 523.969727,349.955322 524.877075,348.638977 
	C530.440674,340.568024 535.720947,332.300842 541.050171,324.069611 
	C543.056580,320.970581 544.941650,317.793030 547.186768,314.157898 
	C538.258118,314.157898 530.105347,314.074677 521.955078,314.182739 
	C514.666199,314.279419 506.471741,312.580933 500.343506,315.355591 
	C493.987701,318.233368 489.634247,325.533722 483.947113,331.441376 
M112.249786,145.771194 
	C116.209488,137.515915 120.169189,129.260651 124.291649,120.666046 
	C112.777092,120.666046 102.282860,120.571777 91.794533,120.778198 
	C90.388901,120.805862 88.334450,122.015549 87.724037,123.245445 
	C76.149719,146.566360 64.915108,170.057037 53.214191,193.313324 
	C49.364796,200.964218 47.777504,208.662704 47.924259,217.192734 
	C48.282555,238.018250 48.049877,258.853943 48.055023,279.685516 
	C48.055424,281.308807 48.055077,282.932068 48.055077,284.840698 
	C59.892761,284.840698 71.273857,284.840698 83.012817,284.840698 
	C83.012817,283.421204 83.013329,282.291290 83.012741,281.161377 
	C83.001312,259.163269 83.137711,237.163391 82.879730,215.168167 
	C82.810646,209.277939 84.305367,204.111008 86.811249,198.941010 
	C95.271225,181.486862 103.578171,163.958511 112.249786,145.771194 
M471.199005,32.708271 
	C479.402985,24.151159 487.606995,15.594049 496.914642,5.885789 
	C469.216736,5.885789 443.160217,5.850640 417.104614,5.986280 
	C415.756744,5.993297 414.149902,7.204253 413.113495,8.285792 
	C401.379181,20.531185 389.744934,32.872406 378.058105,45.163460 
	C371.135345,52.444172 364.166748,59.681316 357.109131,67.052544 
	C357.941162,67.517448 358.199432,67.787682 358.458954,67.788887 
	C384.070404,67.908531 409.681915,68.030464 435.293488,68.042313 
	C436.593872,68.042915 438.258881,67.434631 439.139893,66.518906 
	C449.744049,55.496300 460.232178,44.362095 471.199005,32.708271 
M396.141449,224.892639 
	C400.236145,225.527267 400.684509,223.192337 400.672791,219.854492 
	C400.567627,189.887741 400.579132,159.920578 400.556915,129.953537 
	C400.554749,127.003685 400.556610,124.053825 400.556610,120.847496 
	C386.136078,120.847496 372.111725,120.847496 358.276306,120.847496 
	C358.276306,155.730927 358.276306,190.236649 358.276306,224.895355 
	C370.924103,224.895355 383.067535,224.895355 396.141449,224.892639 
M286.259308,426.747864 
	C273.161804,426.747864 260.064331,426.747864 246.718903,426.747864 
	C246.718903,444.338776 246.718903,461.373108 246.718903,478.321442 
	C260.987671,478.321442 274.842377,478.321442 288.729248,478.321442 
	C288.729248,461.666412 288.753174,445.539215 288.664581,429.412659 
	C288.659668,428.526367 287.718506,427.645233 286.259308,426.747864 
M418.837769,325.276733 
	C413.424744,333.698639 408.011719,342.120544 402.122589,351.283203 
	C419.167786,351.283203 434.972809,351.347656 450.775452,351.181915 
	C452.326233,351.165649 454.213226,350.077087 455.350006,348.908356 
	C465.205444,338.775970 474.933777,328.519745 484.671722,318.273529 
	C485.706604,317.184631 486.560822,315.923981 487.973450,314.145538 
	C470.729858,314.145538 454.555786,314.756256 438.458099,313.911926 
	C429.099670,313.421082 422.413025,315.315796 418.837769,325.276733 
M47.472038,188.994659 
	C51.844521,180.052277 56.319206,171.157135 60.493359,162.123123 
	C61.226997,160.535339 61.374458,158.047546 60.649986,156.515869 
	C55.403030,145.422714 49.931633,134.432938 44.326675,123.515472 
	C43.634697,122.167625 41.754139,120.587982 40.393177,120.558563 
	C29.328484,120.319366 18.256355,120.424095 6.576834,120.424095 
	C19.073668,145.768539 31.257381,170.477966 43.732040,195.777435 
	C45.066589,193.343109 46.081146,191.492477 47.472038,188.994659 
z"/>
<path fill="#020202" opacity="1.000000" stroke="none" 
	d="
M566.711670,40.710480 
	C558.561401,49.303551 550.707336,57.692890 542.651672,65.883865 
	C541.454041,67.101608 539.320435,67.960739 537.595642,68.003235 
	C528.974426,68.215637 520.345093,68.100418 511.267487,68.100418 
	C511.267487,140.532730 511.267487,212.596191 511.267487,285.439850 
	C506.283783,282.696991 501.959351,280.347717 497.663513,277.947296 
	C480.413849,268.308441 463.186615,258.629364 445.913971,249.031982 
	C443.418701,247.645508 441.988708,246.210083 441.998230,242.923950 
	C442.144562,192.425110 442.179688,141.925583 442.039612,91.426788 
	C442.026154,86.573410 443.423920,83.126633 446.819733,79.620171 
	C468.374878,57.362793 489.753967,34.933277 511.019836,12.398884 
	C515.035034,8.144185 519.140747,6.090509 525.257812,6.184738 
	C548.251404,6.538935 571.254761,6.253931 594.254456,6.208920 
	C595.535950,6.206412 596.817444,6.208596 599.526001,6.208596 
	C588.084534,18.229658 577.513550,29.336079 566.711670,40.710480 
z"/>
<path fill="#020202" opacity="1.000000" stroke="none" 
	d="
M308.099182,351.900574 
	C317.925232,374.441925 327.626801,396.621124 337.556244,419.321381 
	C342.060211,409.339935 346.339783,399.824188 350.645355,390.320251 
	C361.808838,365.678436 372.955139,341.028687 384.243622,316.444244 
	C384.776276,315.284180 386.590881,314.035583 387.845520,313.995789 
	C395.140686,313.764374 402.446960,313.882507 410.707977,313.882507 
	C401.003143,330.654938 391.670349,346.784454 381.999451,363.498291 
	C397.228577,363.498291 411.928528,363.498291 427.061951,363.498291 
	C427.061951,402.022766 427.061951,440.080048 427.061951,478.504395 
	C413.399536,478.504395 399.678040,478.504395 385.417114,478.504395 
	C385.417114,458.806152 385.417114,439.119690 385.417114,419.433228 
	C385.031677,419.339233 384.646240,419.245209 384.260803,419.151215 
	C381.655609,425.097168 379.097656,431.064423 376.435364,436.984711 
	C370.721130,449.691833 364.865845,462.336548 359.274353,475.097107 
	C358.028107,477.941223 356.593750,479.067505 353.362854,478.993256 
	C342.869781,478.752106 332.365570,478.785522 321.870331,478.974274 
	C318.541046,479.034119 316.869843,477.957214 315.553253,474.813110 
	C307.991669,456.755554 300.250397,438.772064 292.436066,420.821777 
	C284.429108,402.429016 276.206635,384.130096 268.192291,365.740509 
	C260.775055,348.721069 253.508347,331.636017 245.874222,313.879425 
	C251.670700,313.879425 257.044739,313.879944 262.418762,313.879303 
	C270.917572,313.878265 279.421722,313.719696 287.910522,314.010193 
	C289.564392,314.066772 291.983704,315.485962 292.649567,316.924774 
	C297.948730,328.374329 302.909851,339.980377 308.099182,351.900574 
z"/>
<path fill="#020202" opacity="1.000000" stroke="none" 
	d="
M214.637039,283.797668 
	C196.963547,285.793243 179.604187,286.880127 162.597092,282.851471 
	C138.910446,277.240570 124.690063,258.473358 124.131493,233.932190 
	C123.733917,216.464539 124.054359,198.980545 124.054359,180.910156 
	C138.111633,180.910156 151.944229,180.910156 166.586777,180.910156 
	C166.586777,186.373856 166.616730,191.972565 166.580246,197.570831 
	C166.514008,207.730896 166.377823,217.890533 166.327896,228.050644 
	C166.282227,237.342194 170.583588,242.211121 179.696671,242.507812 
	C187.006042,242.745789 194.360016,242.681488 201.650238,242.149139 
	C209.433304,241.580795 213.621628,237.330872 213.733109,229.586655 
	C213.994370,211.435516 213.981903,193.275848 213.740768,175.124146 
	C213.633896,167.078339 207.983887,162.072113 199.835236,162.024551 
	C189.841171,161.966217 179.844925,162.112991 169.853409,161.945770 
	C168.096176,161.916351 165.573563,161.313492 164.731094,160.073853 
	C156.056946,147.310303 147.656006,134.361099 138.617661,120.609680 
	C142.510483,120.609680 145.453125,120.613640 148.395767,120.609039 
	C166.385422,120.580948 184.375092,120.532623 202.364746,120.527794 
	C214.830200,120.524445 226.497726,123.509590 236.613525,130.943069 
	C250.281326,140.986679 255.762054,155.522125 256.237457,171.704041 
	C256.848480,192.501251 257.017365,213.370941 255.995789,234.141479 
	C254.742203,259.629761 242.243851,277.193329 214.637039,283.797668 
z"/>
<path fill="#020201" opacity="1.000000" stroke="none" 
	d="
M356.999756,242.643814 
	C363.164307,242.626923 368.841980,242.388458 374.486176,242.719528 
	C376.323639,242.827316 378.801147,243.949875 379.749512,245.410858 
	C387.707977,257.671326 395.383606,270.115540 403.122284,282.518219 
	C403.528625,283.169495 403.734680,283.945709 404.237976,285.153107 
	C385.661591,285.153107 367.571228,285.289520 349.484070,285.107117 
	C336.515320,284.976318 323.382935,285.601807 310.621674,283.790039 
	C288.400787,280.635284 274.103577,267.343933 268.419861,245.447556 
	C267.265930,241.002121 266.811249,236.259445 266.798981,231.651764 
	C266.701782,195.170288 266.789154,158.688339 266.830750,122.206535 
	C266.831116,121.890327 266.981445,121.574280 267.185699,120.770309 
	C281.092346,120.770309 295.118927,120.770309 309.853210,120.770309 
	C309.853210,122.671211 309.853638,124.612015 309.853180,126.552818 
	C309.845062,160.208527 309.830566,193.864243 309.832397,227.519958 
	C309.832977,238.321930 314.040375,242.529282 325.011017,242.600861 
	C335.506927,242.669342 346.003510,242.633560 356.999756,242.643814 
z"/>
<path fill="#030303" opacity="1.000000" stroke="none" 
	d="
M559.209412,478.823303 
	C555.849976,479.151306 554.654297,478.223511 554.660400,474.977844 
	C554.760376,421.533905 554.731445,368.089722 554.731445,314.265472 
	C569.004150,314.265472 583.047424,314.265472 597.512939,314.265472 
	C597.512939,354.651947 597.512939,395.029022 597.512939,435.792450 
	C608.532410,435.792450 619.141418,435.934814 629.742615,435.709717 
	C633.126831,435.637878 635.165710,436.612579 637.005127,439.523712 
	C644.100891,450.754089 651.487244,461.800507 658.720703,472.944458 
	C659.778687,474.574402 660.595215,476.361115 661.929138,478.824646 
	C627.373657,478.824646 593.530640,478.824646 559.209412,478.823303 
z"/>
<path fill="#020202" opacity="1.000000" stroke="none" 
	d="
M688.977722,260.000000 
	C688.979431,268.465881 688.979431,276.431793 688.979431,284.755035 
	C674.640625,284.755035 660.597412,284.755035 646.099365,284.755035 
	C646.099365,264.815857 646.099365,245.073990 646.099365,225.558807 
	C645.367920,225.197388 645.056702,224.897079 644.814636,224.945145 
	C635.861206,226.723038 630.752930,222.617722 626.391113,214.916916 
	C619.817139,203.310547 611.974670,192.422653 604.322693,180.694977 
	C618.579590,180.694977 632.000427,180.694977 645.990356,180.694977 
	C645.990356,160.618393 645.990356,140.749466 645.990356,120.676468 
	C660.511169,120.676468 674.461853,120.676468 688.976013,120.676468 
	C688.976013,166.998093 688.976013,213.249039 688.977722,260.000000 
z"/>
<path fill="#030303" opacity="1.000000" stroke="none" 
	d="
M597.573608,226.000702 
	C597.577698,245.942261 597.577698,265.383820 597.577698,284.974121 
	C583.057800,284.974121 569.132141,284.974121 554.961609,284.974121 
	C554.961609,230.151840 554.961609,175.596542 554.961609,120.684715 
	C569.048157,120.684715 582.957031,120.684715 597.569519,120.684715 
	C597.569519,155.673706 597.569519,190.587189 597.573608,226.000702 
z"/>
<path fill="#030303" opacity="1.000000" stroke="none" 
	d="
M484.176086,331.170593 
	C489.634247,325.533722 493.987701,318.233368 500.343506,315.355591 
	C506.471741,312.580933 514.666199,314.279419 521.955078,314.182739 
	C530.105347,314.074677 538.258118,314.157898 547.186768,314.157898 
	C544.941650,317.793030 543.056580,320.970581 541.050171,324.069611 
	C535.720947,332.300842 530.440674,340.568024 524.877075,348.638977 
	C523.969727,349.955322 521.740112,350.996765 520.084595,351.051758 
	C512.466614,351.304871 504.835480,351.163300 496.961090,351.163300 
	C496.961090,393.988373 496.961090,436.270844 496.961090,478.940094 
	C495.830994,478.616974 494.866516,478.523682 494.090302,478.091919 
	C482.484406,471.636078 470.928986,465.089172 459.297058,458.681061 
	C456.673553,457.235718 455.551208,455.395752 455.564392,452.347931 
	C455.691406,423.016510 455.665924,393.684357 455.847565,364.353424 
	C455.858246,362.629669 456.898499,360.570251 458.100433,359.250763 
	C466.622192,349.895538 475.311340,340.692749 484.176086,331.170593 
z"/>
<path fill="#020202" opacity="1.000000" stroke="none" 
	d="
M112.096710,146.114868 
	C103.578171,163.958511 95.271225,181.486862 86.811249,198.941010 
	C84.305367,204.111008 82.810646,209.277939 82.879730,215.168167 
	C83.137711,237.163391 83.001312,259.163269 83.012741,281.161377 
	C83.013329,282.291290 83.012817,283.421204 83.012817,284.840698 
	C71.273857,284.840698 59.892761,284.840698 48.055077,284.840698 
	C48.055077,282.932068 48.055424,281.308807 48.055023,279.685516 
	C48.049877,258.853943 48.282555,238.018250 47.924259,217.192734 
	C47.777504,208.662704 49.364796,200.964218 53.214191,193.313324 
	C64.915108,170.057037 76.149719,146.566360 87.724037,123.245445 
	C88.334450,122.015549 90.388901,120.805862 91.794533,120.778198 
	C102.282860,120.571777 112.777092,120.666046 124.291649,120.666046 
	C120.169189,129.260651 116.209488,137.515915 112.096710,146.114868 
z"/>
<path fill="#040404" opacity="1.000000" stroke="none" 
	d="
M470.974792,32.982643 
	C460.232178,44.362095 449.744049,55.496300 439.139893,66.518906 
	C438.258881,67.434631 436.593872,68.042915 435.293488,68.042313 
	C409.681915,68.030464 384.070404,67.908531 358.458954,67.788887 
	C358.199432,67.787682 357.941162,67.517448 357.109131,67.052544 
	C364.166748,59.681316 371.135345,52.444172 378.058105,45.163460 
	C389.744934,32.872406 401.379181,20.531185 413.113495,8.285792 
	C414.149902,7.204253 415.756744,5.993297 417.104614,5.986280 
	C443.160217,5.850640 469.216736,5.885789 496.914642,5.885789 
	C487.606995,15.594049 479.402985,24.151159 470.974792,32.982643 
z"/>
<path fill="#040404" opacity="1.000000" stroke="none" 
	d="
M395.676208,224.893997 
	C383.067535,224.895355 370.924103,224.895355 358.276306,224.895355 
	C358.276306,190.236649 358.276306,155.730927 358.276306,120.847496 
	C372.111725,120.847496 386.136078,120.847496 400.556610,120.847496 
	C400.556610,124.053825 400.554749,127.003685 400.556915,129.953537 
	C400.579132,159.920578 400.567627,189.887741 400.672791,219.854492 
	C400.684509,223.192337 400.236145,225.527267 395.676208,224.893997 
z"/>
<path fill="#060606" opacity="1.000000" stroke="none" 
	d="
M286.736206,426.754761 
	C287.718506,427.645233 288.659668,428.526367 288.664581,429.412659 
	C288.753174,445.539215 288.729248,461.666412 288.729248,478.321442 
	C274.842377,478.321442 260.987671,478.321442 246.718903,478.321442 
	C246.718903,461.373108 246.718903,444.338776 246.718903,426.747864 
	C260.064331,426.747864 273.161804,426.747864 286.736206,426.754761 
z"/>
<path fill="#030303" opacity="1.000000" stroke="none" 
	d="
M418.965454,324.936951 
	C422.413025,315.315796 429.099670,313.421082 438.458099,313.911926 
	C454.555786,314.756256 470.729858,314.145538 487.973450,314.145538 
	C486.560822,315.923981 485.706604,317.184631 484.671722,318.273529 
	C474.933777,328.519745 465.205444,338.775970 455.350006,348.908356 
	C454.213226,350.077087 452.326233,351.165649 450.775452,351.181915 
	C434.972809,351.347656 419.167786,351.283203 402.122589,351.283203 
	C408.011719,342.120544 413.424744,333.698639 418.965454,324.936951 
z"/>
<path fill="#030303" opacity="1.000000" stroke="none" 
	d="
M47.283875,189.318253 
	C46.081146,191.492477 45.066589,193.343109 43.732040,195.777435 
	C31.257381,170.477966 19.073668,145.768539 6.576834,120.424095 
	C18.256355,120.424095 29.328484,120.319366 40.393177,120.558563 
	C41.754139,120.587982 43.634697,122.167625 44.326675,123.515472 
	C49.931633,134.432938 55.403030,145.422714 60.649986,156.515869 
	C61.374458,158.047546 61.226997,160.535339 60.493359,162.123123 
	C56.319206,171.157135 51.844521,180.052277 47.283875,189.318253 
z"/>
</svg>